<!DOCTYPE svg PUBLIC "-//W3C//DTD SVG 1.1//EN" "http://www.w3.org/Graphics/SVG/1.1/DTD/svg11.dtd">
<!-- Uploaded to: SVG Repo, www.svgrepo.com, Transformed by: SVG Repo Mixer Tools -->
<svg width="800px" height="800px" viewBox="0 0 48.00 48.00" xmlns="http://www.w3.org/2000/svg" fill="#e0e0e0" transform="matrix(-1, 0, 0, 1, 0, 0)" stroke="#e0e0e0" stroke-width="0.00048000000000000007">
<g id="SVGRepo_bgCarrier" stroke-width="0" transform="translate(0,0), scale(1)">
<rect x="0" y="0" width="48.00" height="48.00" rx="7.2" fill="#79c0d7" strokewidth="0"/>
</g>
<g id="SVGRepo_tracerCarrier" stroke-linecap="round" stroke-linejoin="round"/>
<g id="SVGRepo_iconCarrier"> <title>pipeline</title> <g id="Layer_2" data-name="Layer 2"> <g id="invisible_box" data-name="invisible box"> <rect width="48" height="48" fill="none"/> </g> <g id="icons_Q2" data-name="icons Q2"> <path d="M40,30a2,2,0,0,0-2,2v1H22a2,2,0,0,1,0-4h4A12,12,0,0,0,26,5H10V4A2,2,0,0,0,6,4V16a2,2,0,0,0,4,0V15H26a2,2,0,0,1,0,4H22a12,12,0,0,0,0,24H38v1a2,2,0,0,0,4,0V32A2,2,0,0,0,40,30ZM22,39a8,8,0,0,1,0-16h4a6,6,0,0,0,0-12H10V9H26a8,8,0,0,1,0,16H22a6,6,0,0,0,0,12H38v2Z"/> </g> </g> </g>
</svg>